#!OML:ASF I:\Actors\actors\Patient Classification 1\Patient 1\Session 1\Subject1.ASF
:FULLY-SPECIFIED
:DEGREES
713
root 0.658217 17.4827 9.5062 7.9861 2.01434 -8.38427
lowerback -3.76303 2.12136 7.78175
upperback -9.74051 2.93897 -0.277336
thorax -7.80672 0.877008 -4.71781
lowerneck -0.279409 -7.55686 -8.07233
upperneck 2.2158 -10.7175 18.5359
head 2.17058 -5.21525 6.63739
rclavicle 3.75703e-014 -2.62396e-014
rhumerus 18.2828 27.4489 -66.2681
rradius 134.081
rwrist -3.78845
rhand -1.85898 -57.0083
rfingers 7.12502
rthumb 23.8086 -445.553
lclavicle 3.75703e-014 -2.62396e-014
lhumerus -40.7913 40.4034 58.3302
lradius 32.0925
lwrist -11.4424
lhand -32.9636 -29.9987
lfingers 7.12502
lthumb -6.17912 -0.108865
rfemur -0.503864 24.7762 26.6028
rtibia 2.21501
rfoot -14.9946 -29.1514
rtoes 9.86409
lfemur 9.4148 -49.102 -15.8729
ltibia -5.70013
lfoot -23.2321 54.8507
ltoes 12.2645
714
root 0.666558 17.4831 9.5047 8.12038 1.71035 -8.37565
lowerback -3.74414 2.24658 8.11513
upperback -9.81534 3.10823 -0.400823
thorax -7.86398 0.925639 -5.04095
lowerneck -0.246014 -7.58132 -8.15171
upperneck 1.94107 -10.7082 18.4607
head 2.08446 -5.22484 6.63227
rclavicle -6.75868e-015 4.69132e-014
rhumerus 18.6243 27.4384 -66.1774
rradius 133.985
rwrist -3.61792
rhand -1.90484 -56.9246
rfingers 7.12502
rthumb 23.7647 -445.475
lclavicle -6.75868e-015 4.69132e-014
lhumerus -41.5912 41.1277 57.0923
lradius 31.7727
lwrist -11.5201
lhand -33.1289 -28.8557
lfingers 7.12502
lthumb -6.33862 1.02945
rfemur -0.72501 24.9396 26.4636
rtibia 2.27258
rfoot -14.8922 -29.046
rtoes 9.54852
lfemur 9.4765 -49.3085 -15.9921
ltibia -5.73322
lfoot -23.8537 55.2583
ltoes 12.8119
715
root 0.67584 17.484 9.50744 8.22809 1.35557 -8.31975
lowerback -3.76323 2.40516 8.45925
upperback -9.8397 3.31411 -0.556117
thorax -7.83299 0.995549 -5.40151
lowerneck -0.281981 -7.5721 -8.31053
upperneck 1.6922 -10.6576 18.4712
head 2.0214 -5.20882 6.66644
rclavicle -1.37161e-014 4.13472e-014
rhumerus 19.0617 27.36 -65.9723
rradius 133.904
rwrist -3.58086
rhand -2.10525 -56.7736
rfingers 7.12502
rthumb 23.5724 -445.349
lclavicle -1.37161e-014 4.13472e-014
lhumerus -42.2451 41.4946 56.1371
lradius 31.5134
lwrist -10.8819
lhand -33.3786 -26.7241
lfingers 7.12502
lthumb -6.57971 3.1537
rfemur -0.807377 25.2042 26.3141
rtibia 2.21927
rfoot -14.8148 -28.9922
rtoes 9.36806
lfemur 9.60447 -49.4001 -16.2375
ltibia -5.73594
lfoot -24.3957 55.5853
ltoes 13.2185
716
root 0.685144 17.4839 9.51598 8.30763 1.0081 -8.15617
lowerback -3.82529 2.57774 8.71833
upperback -9.82681 3.52823 -0.763049
thorax -7.73024 1.07868 -5.76622
lowerneck -0.238438 -7.51777 -8.49161
upperneck 1.3569 -10.5412 18.6024
head 1.91904 -5.16597 6.75096
rclavicle -9.14409e-015 -3.65764e-014
rhumerus 19.3418 27.2143 -65.8221
rradius 133.772
rwrist -3.32234
rhand -2.12262 -56.4963
rfingers 7.12502
rthumb 23.5558 -445.074
lclavicle -9.14409e-015 -3.65764e-014
lhumerus -43.1221 42.1303 54.8674
lradius 31.1258
lwrist -10.6926
lhand -33.646 -25.467
lfingers 7.12502
lthumb -6.83789 4.40254
rfemur -0.745193 25.4764 26.0907
rtibia 2.0466
rfoot -14.684 -29.0126
rtoes 9.1114
lfemur 9.73345 -49.2726 -16.6036
ltibia -5.72671
lfoot -24.7684 55.6818
ltoes 13.473
717
root 0.691549 17.4848 9.5203 8.46657 0.735223 -7.98686
lowerback -3.90798 2.70619 8.90424
upperback -9.84837 3.68294 -0.956086
thorax -7.66429 1.13585 -6.0744
lowerneck -0.132173 -7.43081 -8.56698
upperneck 0.995627 -10.3762 18.6687
head 1.78198 -5.10295 6.80365
rclavicle 4.57205e-015 3.18055e-015
rhumerus 19.6029 27.0935 -65.7137
rradius 133.605
rwrist -2.93005
rhand -1.95869 -56.22
rfingers 7.12502
rthumb 23.713 -444.777
lclavicle 4.57205e-015 3.18055e-015
lhumerus -44.4382 43.311 52.9395
lradius 30.5629
lwrist -11.1714
lhand -33.0741 -26.6997
lfingers 7.12502
lthumb -6.28576 3.18703
rfemur -0.802566 25.8117 25.8383
rtibia 1.89867
rfoot -14.5411 -29.1906
rtoes 8.75959
lfemur 9.41602 -48.7047 -16.552
ltibia -5.72435
lfoot -24.5955 55.3539
ltoes 13.5075
718
root 0.697367 17.4866 9.52189 8.63723 0.496661 -7.80516
lowerback -3.95812 2.79011 9.03812
upperback -9.90519 3.7846 -1.1152
thorax -7.66799 1.16716 -6.31998
lowerneck 0.0410721 -7.43241 -8.45358
upperneck 0.505462 -10.309 18.5035
head 1.58688 -5.09696 6.75156
rclavicle 1.27222e-014 -8.74653e-015
rhumerus 19.9789 27.0533 -65.5319
rradius 133.469
rwrist -2.5938
rhand -1.92139 -55.9618
rfingers 7.12502
rthumb 23.7488 -444.514
lclavicle 1.27222e-014 -8.74653e-015
lhumerus -46.4404 45.0635 50.2016
lradius 30.0014
lwrist -12.2352
lhand -31.4626 -29.4986
lfingers 7.12502
lthumb -4.72985 0.428569
rfemur -0.907234 26.1097 25.5384
rtibia 1.75135
rfoot -14.402 -29.3439
rtoes 8.40224
lfemur 9.09616 -48.3476 -16.5346
ltibia -5.69866
lfoot -24.6405 55.1608
ltoes 13.7855
